<svg xmlns="http://www.w3.org/2000/svg" viewBox="0 0 145.85 193.93">
  <defs>
    <style>
      .cls-1, .cls-2 {
        fill: none;
        stroke: #231f20;
        stroke-miterlimit: 10;
      }

      .cls-1 {
        stroke-linecap: square;
        stroke-width: 4.49px;
      }
    </style>
  </defs>
  <title>Prevenna_Symbol_RGB-working</title>
  <g id="prevenna-complete2">
    <path id="prevenna-complete-forpulse" class="cls-1" d="M15,100.53H64.1a49.15,49.15,0,0,0,0-98.29H2.24v157l29.37,27.84v-157H93.47a49.15,49.15,0,0,1,0,98.29H44.32" transform="translate(0.5 0.5)"/>
  </g>
  <g id="prevenna-complete1">
    <path id="prevenna-complete-forflash" class="cls-1" d="M15,100.53H64.1a49.15,49.15,0,0,0,0-98.29H2.24v157l29.37,27.84v-157H93.47a49.15,49.15,0,0,1,0,98.29H44.32" transform="translate(0.5 0.5)"/>
  </g>
  <g id="prevenna-split">
    <path id="prevenna-split-line2" class="cls-1" d="M44.32,128.38H93.47a49.15,49.15,0,0,0,0-98.29H31.61v157L14.7,171" transform="translate(0.5 0.5)"/>
    <path id="prevenna-split-line1" class="cls-1" d="M15,100.53H64.1a49.15,49.15,0,0,0,0-98.29H2.24v157L14.7,171" transform="translate(0.5 0.5)"/>
  </g>
  <g id="prevenna-divided">
    <path id="prevenna-divided-line2" class="cls-1" d="M31.61,30.09v157L14.7,171" transform="translate(0.5 0.5)"/>
    <path id="prevenna-divided-curve2" class="cls-1" d="M31.61,30.09H93.47a49.15,49.15,0,0,1,0,98.29H44.32" transform="translate(0.5 0.5)"/>
    <path id="prevenna-divided-line1" class="cls-1" d="M2.24,2.24v157L14.7,171" transform="translate(0.5 0.5)"/>
    <path id="prevenna-divided-curve1" class="cls-1" d="M2.24,2.24H64.1a49.15,49.15,0,0,1,0,98.29H15" transform="translate(0.5 0.5)"/>
  </g>
  <g id="prevenna-outline">
    <path id="prevenna-outline-trace" class="cls-2" d="M42.08,130.62H93.47a51.44,51.44,0,0,0,51.38-51.39q0-1.2-.06-2.4c0-.24,0-.48,0-.73,0-.56-.08-1.12-.13-1.68,0-.26-.05-.52-.08-.78-.06-.6-.14-1.2-.22-1.79,0-.19,0-.38-.08-.56-.12-.77-.26-1.53-.41-2.29,0-.17-.08-.34-.11-.51-.13-.59-.27-1.18-.41-1.77-.06-.24-.13-.48-.19-.73l-.45-1.58-.21-.67c-.22-.71-.46-1.41-.71-2.1,0,0,0,0,0-.07-.27-.72-.55-1.42-.84-2.13l-.27-.61c-.22-.5-.44-1-.68-1.5l-.31-.66c-.26-.52-.53-1-.8-1.55l-.25-.48c-.36-.66-.74-1.31-1.13-2l-.24-.37c-.32-.52-.64-1-1-1.54l-.4-.58c-.31-.45-.63-.9-1-1.33l-.4-.54c-.42-.57-.86-1.13-1.31-1.68l-.08-.09c-.48-.58-1-1.15-1.48-1.71l-.42-.46-1.14-1.2-.51-.5c-.41-.41-.82-.8-1.25-1.19l-.39-.37c-.56-.5-1.13-1-1.71-1.48l-.31-.25c-.48-.39-1-.77-1.46-1.15l-.56-.41c-.44-.33-.88-.64-1.33-.95L122,36.5c-.57-.38-1.15-.75-1.73-1.11l-.17-.11c-.65-.39-1.3-.77-2-1.13l-.56-.3c-.48-.26-1-.51-1.47-.76l-.67-.32-1.54-.7-.56-.24c-.67-.28-1.34-.55-2-.8-.26-.61-.54-1.22-.83-1.81-.06-.14-.13-.26-.19-.4q-.41-.81-.84-1.62c-.1-.2-.21-.4-.32-.6q-.42-.77-.87-1.5l-.27-.46c-.39-.63-.79-1.26-1.2-1.87-.09-.13-.18-.25-.26-.38-.34-.49-.69-1-1-1.46l-.41-.54c-.35-.47-.72-.93-1.09-1.39l-.3-.37c-.47-.57-1-1.13-1.46-1.68l-.33-.36c-.4-.43-.8-.86-1.22-1.28l-.46-.46q-.64-.64-1.32-1.26l-.31-.29c-.55-.5-1.11-1-1.68-1.45l-.41-.33c-.45-.37-.91-.73-1.37-1.08l-.52-.39c-.51-.38-1-.74-1.53-1.09l-.3-.21c-.62-.42-1.25-.82-1.89-1.21-.15-.1-.31-.19-.47-.28q-.73-.45-1.5-.87l-.58-.31c-.57-.31-1.14-.6-1.73-.89l-.28-.14q-1-.48-2-.93l-.55-.22-1.6-.64L81.48,3c-.63-.23-1.28-.45-1.93-.65l-.23-.08c-.72-.22-1.45-.43-2.19-.62l-.61-.15q-.84-.21-1.68-.39L74.17,1C73.46.86,72.75.73,72,.61l-.14,0C71.13.47,70.36.38,69.59.3L68.92.23C68.34.18,67.75.13,67.17.1l-.7,0Q65.3,0,64.1,0H0V160.17l33.85,32.1V102.78H64.1a51.46,51.46,0,0,0,51.39-51.39c0-.79,0-1.58-.06-2.36,0-.22,0-.44,0-.66,0-.62-.08-1.23-.14-1.84,0-.18,0-.37,0-.55-.08-.76-.18-1.51-.29-2.26,0-.18-.06-.35-.08-.53-.1-.59-.21-1.19-.32-1.77-.05-.23-.09-.45-.14-.67-.14-.69-.3-1.38-.47-2.06a.83.83,0,0,1,0-.15c-.15-.59-.32-1.18-.49-1.76l.25.11.47.23,1.41.72.49.27c.59.32,1.18.66,1.76,1l.11.07c.54.33,1.07.67,1.6,1l.47.32c.44.3.88.61,1.31.93l.37.27c.54.4,1.07.82,1.58,1.24l.33.28c.41.35.82.7,1.23,1.07l.43.38c.44.41.88.82,1.3,1.25l.16.15c.48.48.94,1,1.39,1.46l.36.4c.35.39.69.79,1,1.19l.34.41c.43.52.85,1,1.25,1.58l.14.19c.35.48.7,1,1,1.47.11.16.22.32.32.48.31.45.6.91.89,1.38.07.12.15.23.22.36.35.57.69,1.15,1,1.75l.22.41c.25.47.5,1,.73,1.43.09.18.18.35.26.53.27.57.54,1.15.79,1.73a.5.5,0,0,0,.05.13c.27.63.52,1.27.75,1.91.07.17.13.35.2.53.18.5.35,1,.51,1.51.05.17.11.34.16.51q.3,1,.57,2c0,.11,0,.22.08.33.14.57.27,1.14.39,1.72,0,.2.09.4.13.6.11.56.21,1.13.3,1.7,0,.13,0,.26.07.39.1.69.19,1.39.26,2.09,0,.17,0,.35.05.52,0,.55.09,1.11.13,1.66l0,.61c0,.72.06,1.44.06,2.16a47,47,0,0,1-46.9,46.9H42.08v4.49M29.37,181.83l-11.5-10.9h0L4.49,158.24V4.49H64.1c.72,0,1.43,0,2.15,0l.56,0c.62,0,1.24.08,1.85.14l.29,0c.7.07,1.39.16,2.07.26l.53.09c.57.09,1.13.19,1.69.3l.43.08c.67.14,1.33.29,2,.46l.45.12,1.61.46.49.15c.64.2,1.28.42,1.92.65l.32.12c.54.21,1.08.42,1.6.64l.51.21c.62.26,1.23.54,1.83.83l.12.06c.57.27,1.13.57,1.69.86l.48.27c.53.29,1,.59,1.56.89l.2.12q.86.53,1.68,1.08l.43.3c.46.31.91.63,1.36,1l.32.24c.53.39,1,.8,1.56,1.22l.36.3c.42.35.83.71,1.23,1.07l.36.32c.49.45,1,.9,1.43,1.37l.26.27c.4.4.79.8,1.17,1.22l.34.37c.45.5.89,1,1.31,1.51l.12.15c.39.47.76,1,1.14,1.45l.31.41c.38.52.75,1,1.11,1.57l.06.08c.38.56.74,1.13,1.09,1.7l.26.43c.3.5.59,1,.88,1.52,0,.09.1.18.14.27a.83.83,0,0,1,.07.13l-.66-.14c-.56-.13-1.12-.24-1.69-.35l-1.1-.2-1.73-.26-1.07-.13c-.63-.07-1.27-.12-1.91-.17-.31,0-.62-.06-.93-.07-1-.06-1.91-.09-2.87-.09H29.37V98.29H12.71v4.49H29.37ZM64.1,98.29H33.85v-66H93.47c.73,0,1.46,0,2.18.06l.67,0c.51,0,1,.07,1.54.12l.71.07c.55.06,1.1.13,1.64.21l.5.07c.7.11,1.4.24,2.09.38l.48.1,1.59.37.68.18c.48.12,1,.26,1.43.4l.63.19.27.1L108,35l.31.87c.14.4.28.81.41,1.22s.19.6.28.9.24.82.35,1.23l.24.93c.1.42.2.83.29,1.25s.14.63.2.94.16.86.23,1.3.11.61.15.92.12.92.18,1.38c0,.29.07.58.1.88,0,.51.08,1,.12,1.54,0,.25,0,.49,0,.74,0,.77.06,1.54.06,2.32A47,47,0,0,1,64.1,98.29Z" transform="translate(0.5 0.5)"/>
  </g>
</svg>
